<svg version="1.1" viewBox="0.0 0.0 600.0 371.0" fill="none" stroke="none" stroke-linecap="square" stroke-miterlimit="10" width="600" height="371" xmlns:xlink="http://www.w3.org/1999/xlink" xmlns="http://www.w3.org/2000/svg"><path fill="#ffffff" d="M0 0L600.0 0L600.0 371.0L0 371.0L0 0Z" fill-rule="nonzero"/><path stroke="#333333" stroke-width="1.0" stroke-linecap="butt" d="M45.5 298.5L581.5 298.5" fill-rule="nonzero"/><path stroke="#cccccc" stroke-width="1.0" stroke-linecap="butt" d="M45.5 259.5L581.5 259.5" fill-rule="nonzero"/><path stroke="#cccccc" stroke-width="1.0" stroke-linecap="butt" d="M45.5 219.5L581.5 219.5" fill-rule="nonzero"/><path stroke="#cccccc" stroke-width="1.0" stroke-linecap="butt" d="M45.5 180.5L581.5 180.5" fill-rule="nonzero"/><path stroke="#cccccc" stroke-width="1.0" stroke-linecap="butt" d="M45.5 141.5L581.5 141.5" fill-rule="nonzero"/><path stroke="#cccccc" stroke-width="1.0" stroke-linecap="butt" d="M45.5 101.5L581.5 101.5" fill-rule="nonzero"/><path stroke="#cccccc" stroke-width="1.0" stroke-linecap="butt" d="M45.5 62.5L581.5 62.5" fill-rule="nonzero"/><clipPath id="id_0"><path d="M45.55 62.416668L581.45 62.416668L581.45 298.45L45.55 298.45L45.55 62.416668Z" clip-rule="nonzero"/></clipPath><path stroke="#000000" stroke-width="0.0" stroke-linecap="butt" stroke-opacity="0.0" clip-path="url(#id_0)" d="M169.0 298.0L89.0 298.0L89.0 64.0C89.0 62.89543 89.89543 62.0 91.0 62.0L167.0 62.0C168.10457 62.0 169.0 62.89543 169.0 64.0Z" fill-rule="nonzero"/><path fill="#4285f4" clip-path="url(#id_0)" d="M169.0 298.0L89.0 298.0L89.0 64.0C89.0 62.89543 89.89543 62.0 91.0 62.0L167.0 62.0C168.10457 62.0 169.0 62.89543 169.0 64.0Z" fill-rule="nonzero"/><path stroke="#000000" stroke-width="0.0" stroke-linecap="butt" stroke-opacity="0.0" clip-path="url(#id_0)" d="M292.0 298.0L212.0 298.0L212.0 202.0C212.0 200.89543 212.89543 200.0 214.0 200.0L290.0 200.0C291.10458 200.0 292.0 200.89543 292.0 202.0Z" fill-rule="nonzero"/><path fill="#4285f4" clip-path="url(#id_0)" d="M292.0 298.0L212.0 298.0L212.0 202.0C212.0 200.89543 212.89543 200.0 214.0 200.0L290.0 200.0C291.10458 200.0 292.0 200.89543 292.0 202.0Z" fill-rule="nonzero"/><path stroke="#000000" stroke-width="0.0" stroke-linecap="butt" stroke-opacity="0.0" clip-path="url(#id_0)" d="M415.0 298.0L335.0 298.0L335.0 241.0C335.0 239.89543 335.89542 239.0 337.0 239.0L413.0 239.0C414.10458 239.0 415.0 239.89543 415.0 241.0Z" fill-rule="nonzero"/><path fill="#4285f4" clip-path="url(#id_0)" d="M415.0 298.0L335.0 298.0L335.0 241.0C335.0 239.89543 335.89542 239.0 337.0 239.0L413.0 239.0C414.10458 239.0 415.0 239.89543 415.0 241.0Z" fill-rule="nonzero"/><path stroke="#000000" stroke-width="0.0" stroke-linecap="butt" stroke-opacity="0.0" clip-path="url(#id_0)" d="M538.0 298.0L458.0 298.0L458.0 143.0C458.0 141.89543 458.89542 141.0 460.0 141.0L536.0 141.0C537.10455 141.0 538.0 141.89543 538.0 143.0Z" fill-rule="nonzero"/><path fill="#4285f4" clip-path="url(#id_0)" d="M538.0 298.0L458.0 298.0L458.0 143.0C458.0 141.89543 458.89542 141.0 460.0 141.0L536.0 141.0C537.10455 141.0 538.0 141.89543 538.0 143.0Z" fill-rule="nonzero"/><path fill="#424242" d="M264.76562 346.7469Q264.60938 348.09064 263.76562 348.84064Q262.92188 349.575 261.53125 349.575Q260.01562 349.575 259.10938 348.4969Q258.20312 347.40314 258.20312 345.575L258.20312 344.7625Q258.20312 343.575 258.625 342.66876Q259.04688 341.7625 259.82812 341.27814Q260.60938 340.79376 261.625 340.79376Q262.98438 340.79376 263.79688 341.5594Q264.625 342.325 264.76562 343.65314L263.64062 343.65314Q263.48438 342.6375 263.0 342.1844Q262.51562 341.73126 261.625 341.73126Q260.54688 341.73126 259.9375 342.52814Q259.32812 343.325 259.32812 344.79376L259.32812 345.6219Q259.32812 347.0125 259.90625 347.84064Q260.48438 348.65314 261.53125 348.65314Q262.46875 348.65314 262.96875 348.23126Q263.46875 347.79376 263.64062 346.7469L264.76562 346.7469ZM266.03125 346.21564Q266.03125 345.29376 266.39062 344.54376Q266.76562 343.79376 267.42188 343.40314Q268.07812 342.9969 268.90625 342.9969Q270.20312 342.9969 271.0 343.8875Q271.8125 344.77814 271.8125 346.27814L271.8125 346.35626Q271.8125 347.27814 271.45312 348.0125Q271.09375 348.7469 270.4375 349.16876Q269.78125 349.575 268.92188 349.575Q267.64062 349.575 266.82812 348.6844Q266.03125 347.77814 266.03125 346.29376L266.03125 346.21564ZM267.125 346.35626Q267.125 347.40314 267.60938 348.04376Q268.10938 348.6844 268.92188 348.6844Q269.75 348.6844 270.23438 348.04376Q270.71875 347.3875 270.71875 346.21564Q270.71875 345.1844 270.21875 344.54376Q269.73438 343.8875 268.90625 343.8875Q268.10938 343.8875 267.60938 344.52814Q267.125 345.15314 267.125 346.35626ZM274.34375 343.10626L274.375 343.90314Q275.10938 342.9969 276.28125 342.9969Q278.29688 342.9969 278.3125 345.2625L278.3125 349.45L277.21875 349.45L277.21875 345.2469Q277.21875 344.575 276.90625 344.2469Q276.60938 343.91876 275.95312 343.91876Q275.42188 343.91876 275.01562 344.2Q274.625 344.48126 274.40625 344.9344L274.40625 349.45L273.32812 349.45L273.32812 343.10626L274.34375 343.10626ZM281.79688 341.575L281.79688 343.10626L282.96875 343.10626L282.96875 343.95L281.79688 343.95L281.79688 347.8719Q281.79688 348.2625 281.95312 348.45Q282.10938 348.6375 282.48438 348.6375Q282.67188 348.6375 283.0 348.575L283.0 349.45Q282.57812 349.575 282.17188 349.575Q281.45312 349.575 281.07812 349.1375Q280.70312 348.6844 280.70312 347.8719L280.70312 343.95L279.54688 343.95L279.54688 343.10626L280.70312 343.10626L280.70312 341.575L281.79688 341.575ZM288.23438 349.45Q288.14062 349.2625 288.07812 348.77814Q287.32812 349.575 286.28125 349.575Q285.34375 349.575 284.73438 349.04376Q284.14062 348.5125 284.14062 347.6844Q284.14062 346.7 284.89062 346.15314Q285.64062 345.60626 287.01562 345.60626L288.0625 345.60626L288.0625 345.10626Q288.0625 344.54376 287.71875 344.21564Q287.39062 343.8719 286.71875 343.8719Q286.14062 343.8719 285.75 344.16876Q285.35938 344.45 285.35938 344.8719L284.26562 344.8719Q284.26562 344.3875 284.59375 343.95Q284.9375 343.5125 285.51562 343.2625Q286.09375 342.9969 286.78125 342.9969Q287.89062 342.9969 288.5 343.54376Q289.125 344.09064 289.15625 345.04376L289.15625 347.96564Q289.15625 348.84064 289.375 349.35626L289.375 349.45L288.23438 349.45ZM286.4375 348.6219Q286.95312 348.6219 287.40625 348.35626Q287.85938 348.09064 288.0625 347.66876L288.0625 346.3719L287.21875 346.3719Q285.21875 346.3719 285.21875 347.54376Q285.21875 348.04376 285.5625 348.34064Q285.90625 348.6219 286.4375 348.6219ZM291.0625 346.23126Q291.0625 344.7469 291.75 343.8719Q292.4375 342.9969 293.5625 342.9969Q294.71875 342.9969 295.375 343.8094L295.42188 343.10626L296.42188 343.10626L296.42188 349.29376Q296.42188 350.52814 295.6875 351.23126Q294.95312 351.95 293.73438 351.95Q293.04688 351.95 292.39062 351.65314Q291.73438 351.35626 291.39062 350.85626L291.95312 350.2Q292.64062 351.0594 293.65625 351.0594Q294.4375 351.0594 294.875 350.60626Q295.32812 350.16876 295.32812 349.35626L295.32812 348.8094Q294.67188 349.575 293.54688 349.575Q292.4375 349.575 291.75 348.6844Q291.0625 347.77814 291.0625 346.23126ZM292.15625 346.35626Q292.15625 347.41876 292.59375 348.04376Q293.03125 348.65314 293.82812 348.65314Q294.84375 348.65314 295.32812 347.71564L295.32812 344.825Q294.82812 343.91876 293.82812 343.91876Q293.04688 343.91876 292.59375 344.52814Q292.15625 345.1375 292.15625 346.35626ZM300.95312 349.575Q299.65625 349.575 298.84375 348.73126Q298.04688 347.8719 298.04688 346.45L298.04688 346.2625Q298.04688 345.3094 298.40625 344.575Q298.76562 343.825 299.40625 343.41876Q300.0625 342.9969 300.8125 342.9969Q302.04688 342.9969 302.73438 343.8094Q303.42188 344.6219 303.42188 346.1375L303.42188 346.59064L299.125 346.59064Q299.15625 347.52814 299.67188 348.10626Q300.20312 348.6844 301.01562 348.6844Q301.57812 348.6844 301.96875 348.45Q302.375 348.21564 302.6875 347.825L303.34375 348.34064Q302.54688 349.575 300.95312 349.575ZM300.8125 343.8875Q300.15625 343.8875 299.70312 344.3719Q299.26562 344.84064 299.17188 345.7L302.34375 345.7L302.34375 345.6219Q302.29688 344.79376 301.89062 344.34064Q301.5 343.8875 300.8125 343.8875ZM305.34375 343.10626L305.375 343.8094Q306.0625 342.9969 307.25 342.9969Q308.57812 342.9969 309.0625 344.0125Q309.375 343.5594 309.875 343.27814Q310.39062 342.9969 311.07812 342.9969Q313.17188 342.9969 313.20312 345.2L313.20312 349.45L312.125 349.45L312.125 345.2625Q312.125 344.59064 311.8125 344.2625Q311.5 343.91876 310.76562 343.91876Q310.15625 343.91876 309.75 344.27814Q309.35938 344.6375 309.29688 345.2469L309.29688 349.45L308.21875 349.45L308.21875 345.29376Q308.21875 343.91876 306.85938 343.91876Q305.79688 343.91876 305.40625 344.825L305.40625 349.45L304.3125 349.45L304.3125 343.10626L305.34375 343.10626ZM318.0625 346.23126Q318.0625 344.7625 318.75 343.8875Q319.4375 342.9969 320.5625 342.9969Q321.67188 342.9969 322.32812 343.7469L322.32812 340.45L323.40625 340.45L323.40625 349.45L322.40625 349.45L322.35938 348.7625Q321.70312 349.575 320.54688 349.575Q319.45312 349.575 318.75 348.66876Q318.0625 347.7625 318.0625 346.3094L318.0625 346.23126ZM319.14062 346.35626Q319.14062 347.4344 319.57812 348.04376Q320.03125 348.65314 320.8125 348.65314Q321.84375 348.65314 322.32812 347.71564L322.32812 344.8094Q321.84375 343.91876 320.82812 343.91876Q320.03125 343.91876 319.57812 344.52814Q319.14062 345.1375 319.14062 346.35626ZM327.95312 349.575Q326.65625 349.575 325.84375 348.73126Q325.04688 347.8719 325.04688 346.45L325.04688 346.2625Q325.04688 345.3094 325.40625 344.575Q325.76562 343.825 326.40625 343.41876Q327.0625 342.9969 327.8125 342.9969Q329.04688 342.9969 329.73438 343.8094Q330.42188 344.6219 330.42188 346.1375L330.42188 346.59064L326.125 346.59064Q326.15625 347.52814 326.67188 348.10626Q327.20312 348.6844 328.01562 348.6844Q328.57812 348.6844 328.96875 348.45Q329.375 348.21564 329.6875 347.825L330.34375 348.34064Q329.54688 349.575 327.95312 349.575ZM327.8125 343.8875Q327.15625 343.8875 326.70312 344.3719Q326.26562 344.84064 326.17188 345.7L329.34375 345.7L329.34375 345.6219Q329.29688 344.79376 328.89062 344.34064Q328.5 343.8875 327.8125 343.8875ZM334.0625 346.23126Q334.0625 344.7625 334.75 343.8875Q335.4375 342.9969 336.5625 342.9969Q337.67188 342.9969 338.32812 343.7469L338.32812 340.45L339.40625 340.45L339.40625 349.45L338.40625 349.45L338.35938 348.7625Q337.70312 349.575 336.54688 349.575Q335.45312 349.575 334.75 348.66876Q334.0625 347.7625 334.0625 346.3094L334.0625 346.23126ZM335.14062 346.35626Q335.14062 347.4344 335.57812 348.04376Q336.03125 348.65314 336.8125 348.65314Q337.84375 348.65314 338.32812 347.71564L338.32812 344.8094Q337.84375 343.91876 336.82812 343.91876Q336.03125 343.91876 335.57812 344.52814Q335.14062 345.1375 335.14062 346.35626ZM343.95312 349.575Q342.65625 349.575 341.84375 348.73126Q341.04688 347.8719 341.04688 346.45L341.04688 346.2625Q341.04688 345.3094 341.40625 344.575Q341.76562 343.825 342.40625 343.41876Q343.0625 342.9969 343.8125 342.9969Q345.04688 342.9969 345.73438 343.8094Q346.42188 344.6219 346.42188 346.1375L346.42188 346.59064L342.125 346.59064Q342.15625 347.52814 342.67188 348.10626Q343.20312 348.6844 344.01562 348.6844Q344.57812 348.6844 344.96875 348.45Q345.375 348.21564 345.6875 347.825L346.34375 348.34064Q345.54688 349.575 343.95312 349.575ZM343.8125 343.8875Q343.15625 343.8875 342.70312 344.3719Q342.26562 344.84064 342.17188 345.7L345.34375 345.7L345.34375 345.6219Q345.29688 344.79376 344.89062 344.34064Q344.5 343.8875 343.8125 343.8875ZM347.0625 346.23126Q347.0625 344.7469 347.75 343.8719Q348.4375 342.9969 349.5625 342.9969Q350.71875 342.9969 351.375 343.8094L351.42188 343.10626L352.42188 343.10626L352.42188 349.29376Q352.42188 350.52814 351.6875 351.23126Q350.95312 351.95 349.73438 351.95Q349.04688 351.95 348.39062 351.65314Q347.73438 351.35626 347.39062 350.85626L347.95312 350.2Q348.64062 351.0594 349.65625 351.0594Q350.4375 351.0594 350.875 350.60626Q351.32812 350.16876 351.32812 349.35626L351.32812 348.8094Q350.67188 349.575 349.54688 349.575Q348.4375 349.575 347.75 348.6844Q347.0625 347.77814 347.0625 346.23126ZM348.15625 346.35626Q348.15625 347.41876 348.59375 348.04376Q349.03125 348.65314 349.82812 348.65314Q350.84375 348.65314 351.32812 347.71564L351.32812 344.825Q350.82812 343.91876 349.82812 343.91876Q349.04688 343.91876 348.59375 344.52814Q348.15625 345.1375 348.15625 346.35626ZM357.39062 344.075Q357.14062 344.04376 356.85938 344.04376Q355.78125 344.04376 355.40625 344.95L355.40625 349.45L354.32812 349.45L354.32812 343.10626L355.375 343.10626L355.39062 343.84064Q355.92188 342.9969 356.90625 342.9969Q357.21875 342.9969 357.39062 343.075L357.39062 344.075ZM360.95312 349.575Q359.65625 349.575 358.84375 348.73126Q358.04688 347.8719 358.04688 346.45L358.04688 346.2625Q358.04688 345.3094 358.40625 344.575Q358.76562 343.825 359.40625 343.41876Q360.0625 342.9969 360.8125 342.9969Q362.04688 342.9969 362.73438 343.8094Q363.42188 344.6219 363.42188 346.1375L363.42188 346.59064L359.125 346.59064Q359.15625 347.52814 359.67188 348.10626Q360.20312 348.6844 361.01562 348.6844Q361.57812 348.6844 361.96875 348.45Q362.375 348.21564 362.6875 347.825L363.34375 348.34064Q362.54688 349.575 360.95312 349.575ZM360.8125 343.8875Q360.15625 343.8875 359.70312 344.3719Q359.26562 344.84064 359.17188 345.7L362.34375 345.7L362.34375 345.6219Q362.29688 344.79376 361.89062 344.34064Q361.5 343.8875 360.8125 343.8875ZM366.95312 349.575Q365.65625 349.575 364.84375 348.73126Q364.04688 347.8719 364.04688 346.45L364.04688 346.2625Q364.04688 345.3094 364.40625 344.575Q364.76562 343.825 365.40625 343.41876Q366.0625 342.9969 366.8125 342.9969Q368.04688 342.9969 368.73438 343.8094Q369.42188 344.6219 369.42188 346.1375L369.42188 346.59064L365.125 346.59064Q365.15625 347.52814 365.67188 348.10626Q366.20312 348.6844 367.01562 348.6844Q367.57812 348.6844 367.96875 348.45Q368.375 348.21564 368.6875 347.825L369.34375 348.34064Q368.54688 349.575 366.95312 349.575ZM366.8125 343.8875Q366.15625 343.8875 365.70312 344.3719Q365.26562 344.84064 365.17188 345.7L368.34375 345.7L368.34375 345.6219Q368.29688 344.79376 367.89062 344.34064Q367.5 343.8875 366.8125 343.8875Z" fill-rule="nonzero"/><path fill="#757575" d="M38.6125 299.3094Q38.6125 301.21564 37.95625 302.15314Q37.315624 303.075 35.925 303.075Q34.565624 303.075 33.909374 302.16876Q33.253124 301.2625 33.221874 299.45L33.221874 298.0125Q33.221874 296.1219 33.8625 295.21564Q34.51875 294.29376 35.909374 294.29376Q37.284374 294.29376 37.940624 295.1844Q38.596874 296.0594 38.6125 297.90314L38.6125 299.3094ZM37.51875 297.825Q37.51875 296.45 37.128124 295.825Q36.753124 295.1844 35.909374 295.1844Q35.08125 295.1844 34.690624 295.825Q34.315624 296.45 34.315624 297.7469L34.315624 299.48126Q34.315624 300.85626 34.70625 301.52814Q35.1125 302.1844 35.925 302.1844Q36.721874 302.1844 37.1125 301.5594Q37.503124 300.9344 37.51875 299.60626L37.51875 297.825Z" fill-rule="nonzero"/><path fill="#757575" d="M38.846874 263.6111L33.253124 263.6111L33.253124 262.82986L36.20625 259.5486Q36.8625 258.7986 37.1125 258.3455Q37.3625 257.87674 37.3625 257.37674Q37.3625 256.70486 36.95625 256.283Q36.565624 255.84549 35.878124 255.84549Q35.08125 255.84549 34.628124 256.31424Q34.175 256.76736 34.175 257.5955L33.096874 257.5955Q33.096874 256.408 33.846874 255.68924Q34.6125 254.95486 35.878124 254.95486Q37.08125 254.95486 37.76875 255.57986Q38.45625 256.20486 38.45625 257.25174Q38.45625 258.50174 36.846874 260.25174L34.565624 262.7205L38.846874 262.7205L38.846874 263.6111Z" fill-rule="nonzero"/><path fill="#757575" d="M37.83125 221.41284L39.01875 221.41284L39.01875 222.28784L37.83125 222.28784L37.83125 224.27222L36.753124 224.27222L36.753124 222.28784L32.8625 222.28784L32.8625 221.64722L36.675 215.74097L37.83125 215.74097L37.83125 221.41284ZM34.096874 221.41284L36.753124 221.41284L36.753124 217.22534L36.6125 217.45972L34.096874 221.41284Z" fill-rule="nonzero"/><path fill="#757575" d="M37.51875 176.40208L37.51875 177.30833L37.315624 177.30833Q36.05 177.33958 35.3 178.07396Q34.55 178.79271 34.425 180.10521Q35.1125 179.33958 36.26875 179.33958Q37.378124 179.33958 38.05 180.12083Q38.721874 180.90208 38.721874 182.15208Q38.721874 183.46458 38.003124 184.26146Q37.284374 185.05833 36.065624 185.05833Q34.846874 185.05833 34.08125 184.12083Q33.33125 183.16771 33.33125 181.68333L33.33125 181.27708Q33.33125 178.91771 34.33125 177.66771Q35.33125 176.41771 37.315624 176.40208L37.51875 176.40208ZM36.096874 180.24583Q35.534374 180.24583 35.065624 180.57396Q34.596874 180.90208 34.409374 181.41771L34.409374 181.80833Q34.409374 182.87083 34.878124 183.51146Q35.3625 184.15208 36.065624 184.15208Q36.8 184.15208 37.221874 183.62083Q37.64375 183.07396 37.64375 182.19896Q37.64375 181.32396 37.221874 180.79271Q36.8 180.24583 36.096874 180.24583Z" fill-rule="nonzero"/><path fill="#757575" d="M38.440624 139.28195Q38.440624 139.92258 38.096874 140.42258Q37.753124 140.92258 37.190624 141.20383Q37.846874 141.48508 38.2375 142.04758Q38.628124 142.59445 38.628124 143.29758Q38.628124 144.39133 37.878124 145.0632Q37.14375 145.71945 35.925 145.71945Q34.690624 145.71945 33.940624 145.0632Q33.20625 144.39133 33.20625 143.29758Q33.20625 142.59445 33.58125 142.04758Q33.95625 141.48508 34.628124 141.20383Q34.065624 140.92258 33.7375 140.42258Q33.409374 139.92258 33.409374 139.28195Q33.409374 138.20383 34.096874 137.57883Q34.784374 136.9382 35.925 136.9382Q37.05 136.9382 37.7375 137.57883Q38.440624 138.20383 38.440624 139.28195ZM37.55 143.26633Q37.55 142.54758 37.096874 142.11008Q36.64375 141.65695 35.909374 141.65695Q35.175 141.65695 34.721874 142.11008Q34.284374 142.54758 34.284374 143.28195Q34.284374 144.0007 34.721874 144.42258Q35.159374 144.82883 35.925 144.82883Q36.675 144.82883 37.1125 144.40695Q37.55 143.98508 37.55 143.26633ZM35.925 137.82883Q35.284374 137.82883 34.878124 138.23508Q34.4875 138.6257 34.4875 139.3132Q34.4875 139.95383 34.878124 140.36008Q35.26875 140.76633 35.909374 140.76633Q36.565624 140.76633 36.95625 140.36008Q37.346874 139.95383 37.346874 139.3132Q37.346874 138.65695 36.940624 138.2507Q36.534374 137.82883 35.925 137.82883Z" fill-rule="nonzero"/><path fill="#757575" d="M29.815624 106.255554L28.7375 106.255554L28.7375 99.036804L26.55 99.83368L26.55 98.849304L29.659374 97.67743L29.815624 97.67743L29.815624 106.255554ZM38.6125 102.61493Q38.6125 104.52118 37.95625 105.45868Q37.315624 106.380554 35.925 106.380554Q34.565624 106.380554 33.909374 105.474304Q33.253124 104.568054 33.221874 102.755554L33.221874 101.318054Q33.221874 99.42743 33.8625 98.52118Q34.51875 97.599304 35.909374 97.599304Q37.284374 97.599304 37.940624 98.48993Q38.596874 99.36493 38.6125 101.20868L38.6125 102.61493ZM37.51875 101.130554Q37.51875 99.755554 37.128124 99.130554Q36.753124 98.48993 35.909374 98.48993Q35.08125 98.48993 34.690624 99.130554Q34.315624 99.755554 34.315624 101.05243L34.315624 102.786804Q34.315624 104.161804 34.70625 104.83368Q35.1125 105.48993 35.925 105.48993Q36.721874 105.48993 37.1125 104.86493Q37.503124 104.23993 37.51875 102.911804L37.51875 101.130554Z" fill-rule="nonzero"/><path fill="#757575" d="M29.815624 66.916664L28.7375 66.916664L28.7375 59.697914L26.55 60.49479L26.55 59.510414L29.659374 58.33854L29.815624 58.33854L29.815624 66.916664ZM38.846874 66.916664L33.253124 66.916664L33.253124 66.135414L36.20625 62.854164Q36.8625 62.104164 37.1125 61.65104Q37.3625 61.18229 37.3625 60.68229Q37.3625 60.010414 36.95625 59.58854Q36.565624 59.15104 35.878124 59.15104Q35.08125 59.15104 34.628124 59.61979Q34.175 60.072914 34.175 60.90104L33.096874 60.90104Q33.096874 59.71354 33.846874 58.99479Q34.6125 58.260414 35.878124 58.260414Q37.08125 58.260414 37.76875 58.885414Q38.45625 59.510414 38.45625 60.55729Q38.45625 61.80729 36.846874 63.55729L34.565624 66.02604L38.846874 66.02604L38.846874 66.916664Z" fill-rule="nonzero"/><path fill="#757575" d="M100.69127 316.45L100.69127 307.91876L103.488144 307.91876Q104.87877 307.91876 105.56627 308.4969Q106.269394 309.0594 106.269394 310.1844Q106.269394 310.79376 105.925644 311.2625Q105.59752 311.71564 105.00377 311.96564Q105.706894 312.15314 106.09752 312.7Q106.50377 313.23126 106.50377 313.98126Q106.50377 315.1375 105.75377 315.79376Q105.019394 316.45 103.66002 316.45L100.69127 316.45ZM101.81627 312.46564L101.81627 315.52814L103.675644 315.52814Q104.47252 315.52814 104.925644 315.1219Q105.37877 314.71564 105.37877 313.9969Q105.37877 312.46564 103.69127 312.46564L101.81627 312.46564ZM101.81627 311.5594L103.519394 311.5594Q104.25377 311.5594 104.69127 311.2Q105.144394 310.825 105.144394 310.1844Q105.144394 309.48126 104.738144 309.16876Q104.331894 308.84064 103.488144 308.84064L101.81627 308.84064L101.81627 311.5594ZM111.44127 316.45Q111.34752 316.2625 111.28502 315.77814Q110.53502 316.575 109.488144 316.575Q108.550644 316.575 107.94127 316.04376Q107.34752 315.5125 107.34752 314.6844Q107.34752 313.7 108.09752 313.15314Q108.84752 312.60626 110.22252 312.60626L111.269394 312.60626L111.269394 312.10626Q111.269394 311.54376 110.925644 311.21564Q110.59752 310.8719 109.925644 310.8719Q109.34752 310.8719 108.956894 311.16876Q108.56627 311.45 108.56627 311.8719L107.47252 311.8719Q107.47252 311.3875 107.800644 310.95Q108.144394 310.5125 108.72252 310.2625Q109.300644 309.9969 109.988144 309.9969Q111.09752 309.9969 111.706894 310.54376Q112.331894 311.09064 112.363144 312.04376L112.363144 314.96564Q112.363144 315.84064 112.581894 316.35626L112.581894 316.45L111.44127 316.45ZM109.644394 315.6219Q110.16002 315.6219 110.613144 315.35626Q111.06627 315.09064 111.269394 314.66876L111.269394 313.3719L110.425644 313.3719Q108.425644 313.3719 108.425644 314.54376Q108.425644 315.04376 108.769394 315.34064Q109.113144 315.6219 109.644394 315.6219ZM117.06627 315.6844Q117.644394 315.6844 118.081894 315.34064Q118.519394 314.98126 118.56627 314.45L119.59752 314.45Q119.56627 314.9969 119.206894 315.4969Q118.863144 315.98126 118.28502 316.27814Q117.72252 316.575 117.06627 316.575Q115.769394 316.575 115.00377 315.71564Q114.25377 314.84064 114.25377 313.34064L114.25377 313.15314Q114.25377 312.23126 114.581894 311.5125Q114.925644 310.79376 115.550644 310.40314Q116.19127 309.9969 117.06627 309.9969Q118.12877 309.9969 118.831894 310.6375Q119.550644 311.2625 119.59752 312.29376L118.56627 312.29376Q118.519394 311.66876 118.09752 311.27814Q117.675644 310.8875 117.06627 310.8875Q116.238144 310.8875 115.78502 311.48126Q115.331894 312.075 115.331894 313.2L115.331894 313.40314Q115.331894 314.4969 115.78502 315.09064Q116.238144 315.6844 117.06627 315.6844ZM121.613144 310.8719Q122.331894 309.9969 123.488144 309.9969Q125.50377 309.9969 125.519394 312.2625L125.519394 316.45L124.425644 316.45L124.425644 312.2469Q124.425644 311.575 124.113144 311.2469Q123.81627 310.91876 123.16002 310.91876Q122.62877 310.91876 122.22252 311.2Q121.831894 311.48126 121.613144 311.9344L121.613144 316.45L120.53502 316.45L120.53502 307.45L121.613144 307.45L121.613144 310.8719ZM131.44127 316.45Q131.34752 316.2625 131.28502 315.77814Q130.53502 316.575 129.48814 316.575Q128.55064 316.575 127.94127 316.04376Q127.34752 315.5125 127.34752 314.6844Q127.34752 313.7 128.09752 313.15314Q128.84752 312.60626 130.22252 312.60626L131.2694 312.60626L131.2694 312.10626Q131.2694 311.54376 130.92564 311.21564Q130.59752 310.8719 129.92564 310.8719Q129.34752 310.8719 128.9569 311.16876Q128.56627 311.45 128.56627 311.8719L127.47252 311.8719Q127.47252 311.3875 127.800644 310.95Q128.1444 310.5125 128.72252 310.2625Q129.30064 309.9969 129.98814 309.9969Q131.09752 309.9969 131.7069 310.54376Q132.3319 311.09064 132.36314 312.04376L132.36314 314.96564Q132.36314 315.84064 132.5819 316.35626L132.5819 316.45L131.44127 316.45ZM129.6444 315.6219Q130.16002 315.6219 130.61314 315.35626Q131.06627 315.09064 131.2694 314.66876L131.2694 313.3719L130.42564 313.3719Q128.42564 313.3719 128.42564 314.54376Q128.42564 315.04376 128.7694 315.34064Q129.11314 315.6219 129.6444 315.6219ZM137.59752 311.075Q137.34752 311.04376 137.06627 311.04376Q135.98814 311.04376 135.61314 311.95L135.61314 316.45L134.53502 316.45L134.53502 310.10626L135.5819 310.10626L135.59752 310.84064Q136.12877 309.9969 137.11314 309.9969Q137.42564 309.9969 137.59752 310.075L137.59752 311.075ZM141.16002 316.575Q139.86314 316.575 139.05064 315.73126Q138.25377 314.8719 138.25377 313.45L138.25377 313.2625Q138.25377 312.3094 138.61314 311.575Q138.97252 310.825 139.61314 310.41876Q140.2694 309.9969 141.0194 309.9969Q142.25377 309.9969 142.94127 310.8094Q143.62877 311.6219 143.62877 313.1375L143.62877 313.59064L139.3319 313.59064Q139.36314 314.52814 139.87877 315.10626Q140.41002 315.6844 141.22252 315.6844Q141.78502 315.6844 142.17564 315.45Q142.5819 315.21564 142.8944 314.825L143.55064 315.34064Q142.75377 316.575 141.16002 316.575ZM141.0194 310.8875Q140.36314 310.8875 139.91002 311.3719Q139.47252 311.84064 139.37877 312.7L142.55064 312.7L142.55064 312.6219Q142.50377 311.79376 142.09752 311.34064Q141.7069 310.8875 141.0194 310.8875ZM145.7069 316.45L144.62877 316.45L144.62877 307.45L145.7069 307.45L145.7069 316.45ZM147.23814 313.21564Q147.23814 312.29376 147.59752 311.54376Q147.97252 310.79376 148.62877 310.40314Q149.28502 309.9969 150.11314 309.9969Q151.41002 309.9969 152.2069 310.8875Q153.0194 311.77814 153.0194 313.27814L153.0194 313.35626Q153.0194 314.27814 152.66002 315.0125Q152.30064 315.7469 151.6444 316.16876Q150.98814 316.575 150.12877 316.575Q148.84752 316.575 148.03502 315.6844Q147.23814 314.77814 147.23814 313.29376L147.23814 313.21564ZM148.3319 313.35626Q148.3319 314.40314 148.81627 315.04376Q149.31627 315.6844 150.12877 315.6844Q150.9569 315.6844 151.44127 315.04376Q151.92564 314.3875 151.92564 313.21564Q151.92564 312.1844 151.42564 311.54376Q150.94127 310.8875 150.11314 310.8875Q149.31627 310.8875 148.81627 311.52814Q148.3319 312.15314 148.3319 313.35626ZM157.59752 311.075Q157.34752 311.04376 157.06627 311.04376Q155.98814 311.04376 155.61314 311.95L155.61314 316.45L154.53502 316.45L154.53502 310.10626L155.5819 310.10626L155.59752 310.84064Q156.12877 309.9969 157.11314 309.9969Q157.42564 309.9969 157.59752 310.075L157.59752 311.075Z" fill-rule="nonzero"/><path fill="#757575" d="M235.8398 307.91876L238.63667 314.8719L241.41792 307.91876L242.88667 307.91876L242.88667 316.45L241.76167 316.45L241.76167 313.1219L241.87105 309.54376L239.05855 316.45L238.19917 316.45L235.4023 309.5594L235.51167 313.1219L235.51167 316.45L234.38667 316.45L234.38667 307.91876L235.8398 307.91876ZM248.13667 316.45Q248.04292 316.2625 247.98042 315.77814Q247.23042 316.575 246.18355 316.575Q245.24605 316.575 244.63667 316.04376Q244.04292 315.5125 244.04292 314.6844Q244.04292 313.7 244.79292 313.15314Q245.54292 312.60626 246.91792 312.60626L247.9648 312.60626L247.9648 312.10626Q247.9648 311.54376 247.62105 311.21564Q247.29292 310.8719 246.62105 310.8719Q246.04292 310.8719 245.6523 311.16876Q245.26167 311.45 245.26167 311.8719L244.16792 311.8719Q244.16792 311.3875 244.49605 310.95Q244.8398 310.5125 245.41792 310.2625Q245.99605 309.9969 246.68355 309.9969Q247.79292 309.9969 248.4023 310.54376Q249.0273 311.09064 249.05855 312.04376L249.05855 314.96564Q249.05855 315.84064 249.2773 316.35626L249.2773 316.45L248.13667 316.45ZM246.3398 315.6219Q246.85542 315.6219 247.30855 315.35626Q247.76167 315.09064 247.9648 314.66876L247.9648 313.3719L247.12105 313.3719Q245.12105 313.3719 245.12105 314.54376Q245.12105 315.04376 245.4648 315.34064Q245.80855 315.6219 246.3398 315.6219ZM254.91792 314.7625Q254.91792 314.325 254.57417 314.09064Q254.24605 313.84064 253.41792 313.66876Q252.60542 313.4969 252.12105 313.2469Q251.63667 312.9969 251.4023 312.66876Q251.18355 312.325 251.18355 311.85626Q251.18355 311.075 251.8398 310.54376Q252.49605 309.9969 253.5273 309.9969Q254.60542 309.9969 255.26167 310.5594Q255.93355 311.10626 255.93355 311.96564L254.85542 311.96564Q254.85542 311.52814 254.4648 311.21564Q254.0898 310.8875 253.5273 310.8875Q252.93355 310.8875 252.5898 311.15314Q252.26167 311.40314 252.26167 311.8094Q252.26167 312.2 252.57417 312.40314Q252.88667 312.60626 253.69917 312.79376Q254.51167 312.96564 255.01167 313.21564Q255.51167 313.46564 255.74605 313.825Q255.99605 314.1844 255.99605 314.6844Q255.99605 315.54376 255.30855 316.0594Q254.63667 316.575 253.55855 316.575Q252.79292 316.575 252.19917 316.3094Q251.62105 316.02814 251.29292 315.54376Q250.9648 315.0594 250.9648 314.4969L252.04292 314.4969Q252.07417 315.04376 252.48042 315.3719Q252.88667 315.6844 253.55855 315.6844Q254.16792 315.6844 254.54292 315.4344Q254.91792 315.1844 254.91792 314.7625ZM258.69916 308.575L258.69916 310.10626L259.87103 310.10626L259.87103 310.95L258.69916 310.95L258.69916 314.8719Q258.69916 315.2625 258.8554 315.45Q259.01166 315.6375 259.38666 315.6375Q259.57416 315.6375 259.90228 315.575L259.90228 316.45Q259.4804 316.575 259.07416 316.575Q258.3554 316.575 257.9804 316.1375Q257.6054 315.6844 257.6054 314.8719L257.6054 310.95L256.44916 310.95L256.44916 310.10626L257.6054 310.10626L257.6054 308.575L258.69916 308.575ZM263.8554 316.575Q262.55853 316.575 261.74603 315.73126Q260.94916 314.8719 260.94916 313.45L260.94916 313.2625Q260.94916 312.3094 261.30853 311.575Q261.6679 310.825 262.30853 310.41876Q262.96478 309.9969 263.71478 309.9969Q264.94916 309.9969 265.63666 310.8094Q266.32416 311.6219 266.32416 313.1375L266.32416 313.59064L262.02728 313.59064Q262.05853 314.52814 262.57416 315.10626Q263.1054 315.6844 263.9179 315.6844Q264.4804 315.6844 264.87103 315.45Q265.27728 315.21564 265.58978 314.825L266.24603 315.34064Q265.44916 316.575 263.8554 316.575ZM263.71478 310.8875Q263.05853 310.8875 262.6054 311.3719Q262.1679 311.84064 262.07416 312.7L265.24603 312.7L265.24603 312.6219Q265.19916 311.79376 264.7929 311.34064Q264.40228 310.8875 263.71478 310.8875ZM270.2929 311.075Q270.0429 311.04376 269.76166 311.04376Q268.68353 311.04376 268.30853 311.95L268.30853 316.45L267.2304 316.45L267.2304 310.10626L268.27728 310.10626L268.2929 310.84064Q268.82416 309.9969 269.80853 309.9969Q270.12103 309.9969 270.2929 310.075L270.2929 311.075Z" fill-rule="nonzero"/><path fill="#757575" d="M364.70706 313.10626L364.70706 316.45L363.58206 316.45L363.58206 307.91876L366.7383 307.91876Q368.12894 307.91876 368.9258 308.6375Q369.7227 309.34064 369.7227 310.52814Q369.7227 311.7625 368.94144 312.4344Q368.1758 313.10626 366.7227 313.10626L364.70706 313.10626ZM364.70706 312.1844L366.7383 312.1844Q367.64456 312.1844 368.1133 311.7625Q368.5977 311.34064 368.5977 310.54376Q368.5977 309.77814 368.1133 309.325Q367.64456 308.85626 366.8008 308.84064L364.70706 308.84064L364.70706 312.1844ZM378.14456 316.45L377.01956 316.45L377.01956 312.5125L372.70706 312.5125L372.70706 316.45L371.58206 316.45L371.58206 307.91876L372.70706 307.91876L372.70706 311.59064L377.01956 311.59064L377.01956 307.91876L378.14456 307.91876L378.14456 316.45ZM380.58206 316.45L380.58206 307.91876L383.00394 307.91876Q384.1133 307.91876 384.95706 308.41876Q385.81644 308.90314 386.2852 309.8094Q386.75394 310.71564 386.75394 311.90314L386.75394 312.4344Q386.75394 313.65314 386.2852 314.5594Q385.83206 315.46564 384.95706 315.95Q384.0977 316.4344 382.95706 316.45L380.58206 316.45ZM381.70706 308.84064L381.70706 315.52814L382.89456 315.52814Q384.19144 315.52814 384.9102 314.73126Q385.64456 313.91876 385.64456 312.41876L385.64456 311.91876Q385.64456 310.46564 384.95706 309.66876Q384.2852 308.85626 383.01956 308.84064L381.70706 308.84064Z" fill-rule="nonzero"/><path fill="#757575" d="M491.33997 316.45L490.21497 316.45L485.9181 309.8719L485.9181 316.45L484.77747 316.45L484.77747 307.91876L485.9181 307.91876L490.21497 314.52814L490.21497 307.91876L491.33997 307.91876L491.33997 316.45ZM493.32434 313.21564Q493.32434 312.29376 493.68372 311.54376Q494.05872 310.79376 494.71497 310.40314Q495.37122 309.9969 496.19934 309.9969Q497.49622 309.9969 498.2931 310.8875Q499.1056 311.77814 499.1056 313.27814L499.1056 313.35626Q499.1056 314.27814 498.74622 315.0125Q498.38684 315.7469 497.7306 316.16876Q497.07434 316.575 496.21497 316.575Q494.93372 316.575 494.12122 315.6844Q493.32434 314.77814 493.32434 313.29376L493.32434 313.21564ZM494.4181 313.35626Q494.4181 314.40314 494.90247 315.04376Q495.40247 315.6844 496.21497 315.6844Q497.0431 315.6844 497.52747 315.04376Q498.01184 314.3875 498.01184 313.21564Q498.01184 312.1844 497.51184 311.54376Q497.02747 310.8875 496.19934 310.8875Q495.40247 310.8875 494.90247 311.52814Q494.4181 312.15314 494.4181 313.35626ZM501.63684 310.10626L501.6681 310.90314Q502.40247 309.9969 503.57434 309.9969Q505.58997 309.9969 505.6056 312.2625L505.6056 316.45L504.51184 316.45L504.51184 312.2469Q504.51184 311.575 504.19934 311.2469Q503.90247 310.91876 503.24622 310.91876Q502.71497 310.91876 502.30872 311.2Q501.9181 311.48126 501.69934 311.9344L501.69934 316.45L500.62122 316.45L500.62122 310.10626L501.63684 310.10626ZM510.24622 316.575Q508.94934 316.575 508.13684 315.73126Q507.33997 314.8719 507.33997 313.45L507.33997 313.2625Q507.33997 312.3094 507.69934 311.575Q508.05872 310.825 508.69934 310.41876Q509.3556 309.9969 510.1056 309.9969Q511.33997 309.9969 512.02747 310.8094Q512.71497 311.6219 512.71497 313.1375L512.71497 313.59064L508.4181 313.59064Q508.44934 314.52814 508.96497 315.10626Q509.49622 315.6844 510.30872 315.6844Q510.87122 315.6844 511.26184 315.45Q511.6681 315.21564 511.9806 314.825L512.63684 315.34064Q511.83997 316.575 510.24622 316.575ZM510.1056 310.8875Q509.44934 310.8875 508.99622 311.3719Q508.55872 311.84064 508.46497 312.7L511.63684 312.7L511.63684 312.6219Q511.58997 311.79376 511.18372 311.34064Q510.7931 310.8875 510.1056 310.8875Z" fill-rule="nonzero"/><path fill="#757575" d="M31.128124 37.55L29.2375 37.55L29.2375 30.971874L22.08125 30.971874L22.08125 37.55L20.20625 37.55L20.20625 23.33125L22.08125 23.33125L22.08125 29.440624L29.2375 29.440624L29.2375 23.33125L31.128124 23.33125L31.128124 37.55ZM35.878124 37.55L34.08125 37.55L34.08125 26.9875L35.878124 26.9875L35.878124 37.55ZM33.925 24.175Q33.925 23.7375 34.190624 23.440624Q34.471874 23.128124 34.9875 23.128124Q35.51875 23.128124 35.784374 23.440624Q36.065624 23.7375 36.065624 24.175Q36.065624 24.6125 35.784374 24.909374Q35.51875 25.20625 34.9875 25.20625Q34.471874 25.20625 34.190624 24.909374Q33.925 24.6125 33.925 24.175ZM38.4875 32.175Q38.4875 29.70625 39.628124 28.253124Q40.76875 26.784374 42.659374 26.784374Q44.596874 26.784374 45.675 28.159374L45.76875 26.9875L47.409374 26.9875L47.409374 37.3Q47.409374 39.346874 46.190624 40.51875Q44.9875 41.70625 42.925 41.70625Q41.784374 41.70625 40.690624 41.221874Q39.596874 40.7375 39.01875 39.878124L39.95625 38.8Q41.128124 40.2375 42.8 40.2375Q44.128124 40.2375 44.8625 39.4875Q45.596874 38.753124 45.596874 37.409374L45.596874 36.4875Q44.51875 37.753124 42.64375 37.753124Q40.784374 37.753124 39.628124 36.253124Q38.4875 34.753124 38.4875 32.175ZM40.3 32.378124Q40.3 34.175 41.034374 35.190624Q41.76875 36.20625 43.08125 36.20625Q44.8 36.20625 45.596874 34.659374L45.596874 29.83125Q44.76875 28.315624 43.1125 28.315624Q41.784374 28.315624 41.034374 29.346874Q40.3 30.378124 40.3 32.378124ZM51.721874 28.26875Q52.925 26.784374 54.846874 26.784374Q58.20625 26.784374 58.221874 30.565624L58.221874 37.55L56.425 37.55L56.425 30.55Q56.409374 29.409374 55.89375 28.8625Q55.39375 28.315624 54.3 28.315624Q53.425 28.315624 52.753124 28.784374Q52.096874 29.253124 51.721874 30.01875L51.721874 37.55L49.925 37.55L49.925 22.55L51.721874 22.55L51.721874 28.26875ZM65.3 37.753124Q63.159374 37.753124 61.8 36.346874Q60.45625 34.925 60.45625 32.565624L60.45625 32.221874Q60.45625 30.659374 61.05 29.425Q61.659374 28.190624 62.7375 27.4875Q63.815624 26.784374 65.08125 26.784374Q67.14375 26.784374 68.28438 28.14375Q69.425 29.503124 69.425 32.034374L69.425 32.784374L62.26875 32.784374Q62.3 34.346874 63.175 35.315624Q64.05 36.26875 65.39375 36.26875Q66.3625 36.26875 67.01875 35.878124Q67.69063 35.4875 68.19063 34.846874L69.28438 35.70625Q67.95625 37.753124 65.3 37.753124ZM65.08125 28.26875Q63.9875 28.26875 63.2375 29.065624Q62.503124 29.8625 62.33125 31.3L67.6125 31.3L67.6125 31.159374Q67.53438 29.784374 66.8625 29.034374Q66.20625 28.26875 65.08125 28.26875ZM78.06563 34.753124Q78.06563 34.01875 77.51875 33.6125Q76.97188 33.20625 75.59688 32.909374Q74.22188 32.6125 73.40938 32.20625Q72.6125 31.8 72.22188 31.2375Q71.84688 30.659374 71.84688 29.878124Q71.84688 28.58125 72.94063 27.690624Q74.03438 26.784374 75.75313 26.784374Q77.55 26.784374 78.65938 27.721874Q79.78438 28.64375 79.78438 30.08125L77.95625 30.08125Q77.95625 29.346874 77.33125 28.815624Q76.70625 28.26875 75.75313 28.26875Q74.75313 28.26875 74.19063 28.70625Q73.64375 29.128124 73.64375 29.83125Q73.64375 30.471874 74.15938 30.815624Q74.675 31.14375 76.03438 31.45625Q77.39375 31.753124 78.22188 32.175Q79.06563 32.58125 79.47188 33.175Q79.87813 33.76875 79.87813 34.6125Q79.87813 36.034374 78.7375 36.89375Q77.6125 37.753124 75.8 37.753124Q74.53438 37.753124 73.55 37.3Q72.58125 36.846874 72.01875 36.05Q71.47188 35.2375 71.47188 34.3L73.28438 34.3Q73.33125 35.20625 74.00313 35.7375Q74.69063 36.26875 75.8 36.26875Q76.83125 36.26875 77.44063 35.8625Q78.06563 35.440624 78.06563 34.753124ZM84.3625 24.425L84.3625 26.9875L86.34688 26.9875L86.34688 28.378124L84.3625 28.378124L84.3625 34.925Q84.3625 35.565624 84.62813 35.89375Q84.89375 36.20625 85.53438 36.20625Q85.84688 36.20625 86.39375 36.08125L86.39375 37.55Q85.675 37.753124 85.00313 37.753124Q83.8 37.753124 83.175 37.01875Q82.56563 36.284374 82.56563 34.925L82.56563 28.378124L80.64375 28.378124L80.64375 26.9875L82.56563 26.9875L82.56563 24.425L84.3625 24.425ZM93.47188 32.175Q93.47188 29.753124 94.62813 28.26875Q95.78438 26.784374 97.64375 26.784374Q99.50313 26.784374 100.58125 28.05L100.58125 22.55L102.39375 22.55L102.39375 37.55L100.7375 37.55L100.64375 36.409374Q99.56563 37.753124 97.62813 37.753124Q95.8 37.753124 94.62813 36.253124Q93.47188 34.7375 93.47188 32.315624L93.47188 32.175ZM95.28438 32.378124Q95.28438 34.175 96.01875 35.190624Q96.76875 36.20625 98.08125 36.20625Q99.8 36.20625 100.58125 34.675L100.58125 29.815624Q99.78438 28.315624 98.09688 28.315624Q96.76875 28.315624 96.01875 29.346874Q95.28438 30.378124 95.28438 32.378124ZM109.3 37.753124Q107.15938 37.753124 105.8 36.346874Q104.45625 34.925 104.45625 32.565624L104.45625 32.221874Q104.45625 30.659374 105.05 29.425Q105.65938 28.190624 106.7375 27.4875Q107.81563 26.784374 109.08125 26.784374Q111.14375 26.784374 112.28438 28.14375Q113.425 29.503124 113.425 32.034374L113.425 32.784374L106.26875 32.784374Q106.3 34.346874 107.175 35.315624Q108.05 36.26875 109.39375 36.26875Q110.3625 36.26875 111.01875 35.878124Q111.69063 35.4875 112.19063 34.846874L113.28438 35.70625Q111.95625 37.753124 109.3 37.753124ZM109.08125 28.26875Q107.9875 28.26875 107.2375 29.065624Q106.50313 29.8625 106.33125 31.3L111.6125 31.3L111.6125 31.159374Q111.53438 29.784374 110.8625 29.034374Q110.20625 28.26875 109.08125 28.26875ZM115.4875 32.175Q115.4875 29.70625 116.62813 28.253124Q117.76875 26.784374 119.65938 26.784374Q121.59688 26.784374 122.675 28.159374L122.76875 26.9875L124.40938 26.9875L124.40938 37.3Q124.40938 39.346874 123.19063 40.51875Q121.9875 41.70625 119.925 41.70625Q118.78438 41.70625 117.69063 41.221874Q116.59688 40.7375 116.01875 39.878124L116.95625 38.8Q118.12813 40.2375 119.8 40.2375Q121.12813 40.2375 121.8625 39.4875Q122.59688 38.753124 122.59688 37.409374L122.59688 36.4875Q121.51875 37.753124 119.64375 37.753124Q117.78438 37.753124 116.62813 36.253124Q115.4875 34.753124 115.4875 32.175ZM117.3 32.378124Q117.3 34.175 118.03438 35.190624Q118.76875 36.20625 120.08125 36.20625Q121.8 36.20625 122.59688 34.659374L122.59688 29.83125Q121.76875 28.315624 120.1125 28.315624Q118.78438 28.315624 118.03438 29.346874Q117.3 30.378124 117.3 32.378124ZM132.01875 28.596874Q131.6125 28.534374 131.14375 28.534374Q129.3625 28.534374 128.72188 30.05L128.72188 37.55L126.925 37.55L126.925 26.9875L128.675 26.9875L128.70625 28.20625Q129.59688 26.784374 131.22188 26.784374Q131.75313 26.784374 132.01875 26.925L132.01875 28.596874ZM138.3 37.753124Q136.15938 37.753124 134.8 36.346874Q133.45625 34.925 133.45625 32.565624L133.45625 32.221874Q133.45625 30.659374 134.05 29.425Q134.65938 28.190624 135.7375 27.4875Q136.81563 26.784374 138.08125 26.784374Q140.14375 26.784374 141.28438 28.14375Q142.425 29.503124 142.425 32.034374L142.425 32.784374L135.26875 32.784374Q135.3 34.346874 136.175 35.315624Q137.05 36.26875 138.39375 36.26875Q139.3625 36.26875 140.01875 35.878124Q140.69063 35.4875 141.19063 34.846874L142.28438 35.70625Q140.95625 37.753124 138.3 37.753124ZM138.08125 28.26875Q136.9875 28.26875 136.2375 29.065624Q135.50313 29.8625 135.33125 31.3L140.6125 31.3L140.6125 31.159374Q140.53438 29.784374 139.8625 29.034374Q139.20625 28.26875 138.08125 28.26875ZM149.3 37.753124Q147.15938 37.753124 145.8 36.346874Q144.45625 34.925 144.45625 32.565624L144.45625 32.221874Q144.45625 30.659374 145.05 29.425Q145.65938 28.190624 146.7375 27.4875Q147.81563 26.784374 149.08125 26.784374Q151.14375 26.784374 152.28438 28.14375Q153.425 29.503124 153.425 32.034374L153.425 32.784374L146.26875 32.784374Q146.3 34.346874 147.175 35.315624Q148.05 36.26875 149.39375 36.26875Q150.3625 36.26875 151.01875 35.878124Q151.69063 35.4875 152.19063 34.846874L153.28438 35.70625Q151.95625 37.753124 149.3 37.753124ZM149.08125 28.26875Q147.9875 28.26875 147.2375 29.065624Q146.50313 29.8625 146.33125 31.3L151.6125 31.3L151.6125 31.159374Q151.53438 29.784374 150.8625 29.034374Q150.20625 28.26875 149.08125 28.26875Z" fill-rule="nonzero"/></svg>