<svg version="1.1" viewBox="0.0 0.0 600.0 371.0" fill="none" stroke="none" stroke-linecap="square" stroke-miterlimit="10" width="600" height="371" xmlns:xlink="http://www.w3.org/1999/xlink" xmlns="http://www.w3.org/2000/svg"><path fill="#ffffff" d="M0 0L600.0 0L600.0 371.0L0 371.0L0 0Z" fill-rule="nonzero"/><path stroke="#cccccc" stroke-width="1.0" stroke-linecap="butt" d="M50.5 331.5L581.5 331.5" fill-rule="nonzero"/><path stroke="#333333" stroke-width="1.0" stroke-linecap="butt" d="M50.5 275.5L581.5 275.5" fill-rule="nonzero"/><path stroke="#cccccc" stroke-width="1.0" stroke-linecap="butt" d="M50.5 220.5L581.5 220.5" fill-rule="nonzero"/><path stroke="#cccccc" stroke-width="1.0" stroke-linecap="butt" d="M50.5 164.5L581.5 164.5" fill-rule="nonzero"/><path stroke="#cccccc" stroke-width="1.0" stroke-linecap="butt" d="M50.5 109.5L581.5 109.5" fill-rule="nonzero"/><path stroke="#cccccc" stroke-width="1.0" stroke-linecap="butt" d="M50.5 53.5L581.5 53.5" fill-rule="nonzero"/><clipPath id="id_0"><path d="M50.55 53.416668L581.45 53.416668L581.45 331.45L50.55 331.45L50.55 53.416668Z" clip-rule="nonzero"/></clipPath><path stroke="#000000" stroke-width="0.0" stroke-linecap="butt" stroke-opacity="0.0" clip-path="url(#id_0)" d="M202.0 276.0L130.0 276.0L130.0 169.0C130.0 167.89543 130.89543 167.0 132.0 167.0L200.0 167.0C201.10457 167.0 202.0 167.89543 202.0 169.0Z" fill-rule="nonzero"/><path fill="#4285f4" clip-path="url(#id_0)" d="M202.0 276.0L130.0 276.0L130.0 169.0C130.0 167.89543 130.89543 167.0 132.0 167.0L200.0 167.0C201.10457 167.0 202.0 167.89543 202.0 169.0Z" fill-rule="nonzero"/><path stroke="#000000" stroke-width="0.0" stroke-linecap="butt" stroke-opacity="0.0" clip-path="url(#id_0)" d="M428.0 276.0L356.0 276.0L356.0 277.0C356.0 277.55228 356.44772 278.0 357.0 278.0L427.0 278.0C427.55228 278.0 428.0 277.55228 428.0 277.0Z" fill-rule="nonzero"/><path fill="#4285f4" clip-path="url(#id_0)" d="M428.0 276.0L356.0 276.0L356.0 277.0C356.0 277.55228 356.44772 278.0 357.0 278.0L427.0 278.0C427.55228 278.0 428.0 277.55228 428.0 277.0Z" fill-rule="nonzero"/><path stroke="#000000" stroke-width="0.0" stroke-linecap="butt" stroke-opacity="0.0" clip-path="url(#id_0)" d="M275.0 276.0L203.0 276.0L203.0 145.0C203.0 143.89543 203.89543 143.0 205.0 143.0L273.0 143.0C274.10458 143.0 275.0 143.89543 275.0 145.0Z" fill-rule="nonzero"/><path fill="#db4437" clip-path="url(#id_0)" d="M275.0 276.0L203.0 276.0L203.0 145.0C203.0 143.89543 203.89543 143.0 205.0 143.0L273.0 143.0C274.10458 143.0 275.0 143.89543 275.0 145.0Z" fill-rule="nonzero"/><path stroke="#000000" stroke-width="0.0" stroke-linecap="butt" stroke-opacity="0.0" clip-path="url(#id_0)" d="M501.0 276.0L429.0 276.0L429.0 212.0C429.0 210.89543 429.89542 210.0 431.0 210.0L499.0 210.0C500.10458 210.0 501.0 210.89543 501.0 212.0Z" fill-rule="nonzero"/><path fill="#db4437" clip-path="url(#id_0)" d="M501.0 276.0L429.0 276.0L429.0 212.0C429.0 210.89543 429.89542 210.0 431.0 210.0L499.0 210.0C500.10458 210.0 501.0 210.89543 501.0 212.0Z" fill-rule="nonzero"/><path fill="#757575" d="M21.628124 332.7625L18.76875 332.7625L18.76875 331.8875L21.628124 331.8875L21.628124 332.7625ZM27.6125 332.3094Q27.6125 334.21564 26.95625 335.15314Q26.315624 336.075 24.925 336.075Q23.565624 336.075 22.909374 335.16876Q22.253124 334.2625 22.221874 332.45L22.221874 331.0125Q22.221874 329.1219 22.8625 328.21564Q23.51875 327.29376 24.909374 327.29376Q26.284374 327.29376 26.940624 328.1844Q27.596874 329.0594 27.6125 330.90314L27.6125 332.3094ZM26.51875 330.825Q26.51875 329.45 26.128124 328.825Q25.753124 328.1844 24.909374 328.1844Q24.08125 328.1844 23.690624 328.825Q23.315624 329.45 23.315624 330.7469L23.315624 332.48126Q23.315624 333.85626 23.70625 334.52814Q24.1125 335.1844 24.925 335.1844Q25.721874 335.1844 26.1125 334.5594Q26.503124 333.9344 26.51875 332.60626L26.51875 330.825ZM29.33125 337.65314L28.721874 337.23126Q29.26875 336.46564 29.3 335.6375L29.3 334.66876L30.3625 334.66876L30.3625 335.5125Q30.3625 336.10626 30.065624 336.7Q29.76875 337.29376 29.33125 337.65314ZM36.6125 332.3094Q36.6125 334.21564 35.95625 335.15314Q35.315624 336.075 33.925 336.075Q32.565624 336.075 31.909374 335.16876Q31.253124 334.2625 31.221874 332.45L31.221874 331.0125Q31.221874 329.1219 31.8625 328.21564Q32.51875 327.29376 33.909374 327.29376Q35.284374 327.29376 35.940624 328.1844Q36.596874 329.0594 36.6125 330.90314L36.6125 332.3094ZM35.51875 330.825Q35.51875 329.45 35.128124 328.825Q34.753124 328.1844 33.909374 328.1844Q33.08125 328.1844 32.690624 328.825Q32.315624 329.45 32.315624 330.7469L32.315624 332.48126Q32.315624 333.85626 32.70625 334.52814Q33.1125 335.1844 33.925 335.1844Q34.721874 335.1844 35.1125 334.5594Q35.503124 333.9344 35.51875 332.60626L35.51875 330.825ZM38.753124 331.66876L39.190624 327.41876L43.565624 327.41876L43.565624 328.41876L40.1125 328.41876L39.846874 330.7469Q40.4875 330.3719 41.284374 330.3719Q42.440624 330.3719 43.128124 331.15314Q43.815624 331.91876 43.815624 333.23126Q43.815624 334.54376 43.096874 335.3094Q42.39375 336.075 41.1125 336.075Q39.9875 336.075 39.26875 335.45Q38.55 334.8094 38.45625 333.7L39.471874 333.7Q39.58125 334.4344 40.003124 334.8094Q40.425 335.1844 41.1125 335.1844Q41.8625 335.1844 42.3 334.66876Q42.7375 334.15314 42.7375 333.2469Q42.7375 332.3875 42.26875 331.8719Q41.8 331.35626 41.01875 331.35626Q40.315624 331.35626 39.909374 331.65314L39.628124 331.8875L38.753124 331.66876Z" fill-rule="nonzero"/><path fill="#757575" d="M43.6125 276.7027Q43.6125 278.60895 42.95625 279.54645Q42.315624 280.46832 40.925 280.46832Q39.565624 280.46832 38.909374 279.56207Q38.253124 278.65582 38.221874 276.84332L38.221874 275.40582Q38.221874 273.5152 38.8625 272.60895Q39.51875 271.68707 40.909374 271.68707Q42.284374 271.68707 42.940624 272.5777Q43.596874 273.4527 43.6125 275.29645L43.6125 276.7027ZM42.51875 275.21832Q42.51875 273.84332 42.128124 273.21832Q41.753124 272.5777 40.909374 272.5777Q40.08125 272.5777 39.690624 273.21832Q39.315624 273.84332 39.315624 275.1402L39.315624 276.87457Q39.315624 278.24957 39.70625 278.92145Q40.1125 279.5777 40.925 279.5777Q41.721874 279.5777 42.1125 278.9527Q42.503124 278.3277 42.51875 276.99957L42.51875 275.21832Z" fill-rule="nonzero"/><path fill="#757575" d="M27.6125 221.09604Q27.6125 223.00229 26.95625 223.93979Q26.315624 224.86166 24.925 224.86166Q23.565624 224.86166 22.909374 223.95541Q22.253124 223.04916 22.221874 221.23666L22.221874 219.79916Q22.221874 217.90854 22.8625 217.00229Q23.51875 216.08041 24.909374 216.08041Q26.284374 216.08041 26.940624 216.97104Q27.596874 217.84604 27.6125 219.68979L27.6125 221.09604ZM26.51875 219.61166Q26.51875 218.23666 26.128124 217.61166Q25.753124 216.97104 24.909374 216.97104Q24.08125 216.97104 23.690624 217.61166Q23.315624 218.23666 23.315624 219.53354L23.315624 221.26791Q23.315624 222.64291 23.70625 223.31479Q24.1125 223.97104 24.925 223.97104Q25.721874 223.97104 26.1125 223.34604Q26.503124 222.72104 26.51875 221.39291L26.51875 219.61166ZM29.33125 226.43979L28.721874 226.01791Q29.26875 225.25229 29.3 224.42416L29.3 223.45541L30.3625 223.45541L30.3625 224.29916Q30.3625 224.89291 30.065624 225.48666Q29.76875 226.08041 29.33125 226.43979ZM36.6125 221.09604Q36.6125 223.00229 35.95625 223.93979Q35.315624 224.86166 33.925 224.86166Q32.565624 224.86166 31.909374 223.95541Q31.253124 223.04916 31.221874 221.23666L31.221874 219.79916Q31.221874 217.90854 31.8625 217.00229Q32.51875 216.08041 33.909374 216.08041Q35.284374 216.08041 35.940624 216.97104Q36.596874 217.84604 36.6125 219.68979L36.6125 221.09604ZM35.51875 219.61166Q35.51875 218.23666 35.128124 217.61166Q34.753124 216.97104 33.909374 216.97104Q33.08125 216.97104 32.690624 217.61166Q32.315624 218.23666 32.315624 219.53354L32.315624 221.26791Q32.315624 222.64291 32.70625 223.31479Q33.1125 223.97104 33.925 223.97104Q34.721874 223.97104 35.1125 223.34604Q35.503124 222.72104 35.51875 221.39291L35.51875 219.61166ZM38.753124 220.45541L39.190624 216.20541L43.565624 216.20541L43.565624 217.20541L40.1125 217.20541L39.846874 219.53354Q40.4875 219.15854 41.284374 219.15854Q42.440624 219.15854 43.128124 219.93979Q43.815624 220.70541 43.815624 222.01791Q43.815624 223.33041 43.096874 224.09604Q42.39375 224.86166 41.1125 224.86166Q39.9875 224.86166 39.26875 224.23666Q38.55 223.59604 38.45625 222.48666L39.471874 222.48666Q39.58125 223.22104 40.003124 223.59604Q40.425 223.97104 41.1125 223.97104Q41.8625 223.97104 42.3 223.45541Q42.7375 222.93979 42.7375 222.03354Q42.7375 221.17416 42.26875 220.65854Q41.8 220.14291 41.01875 220.14291Q40.315624 220.14291 39.909374 220.43979L39.628124 220.67416L38.753124 220.45541Z" fill-rule="nonzero"/><path fill="#757575" d="M34.6125 165.48938Q34.6125 167.39563 33.95625 168.33313Q33.315624 169.255 31.925 169.255Q30.565624 169.255 29.909374 168.34875Q29.253124 167.4425 29.221874 165.63L29.221874 164.1925Q29.221874 162.30188 29.8625 161.39563Q30.51875 160.47375 31.909374 160.47375Q33.284374 160.47375 33.940624 161.36438Q34.596874 162.23938 34.6125 164.08313L34.6125 165.48938ZM33.51875 164.005Q33.51875 162.63 33.128124 162.005Q32.753124 161.36438 31.909374 161.36438Q31.08125 161.36438 30.690624 162.005Q30.315624 162.63 30.315624 163.92688L30.315624 165.66125Q30.315624 167.03625 30.70625 167.70813Q31.1125 168.36438 31.925 168.36438Q32.721874 168.36438 33.1125 167.73938Q33.503124 167.11438 33.51875 165.78625L33.51875 164.005ZM36.33125 170.83313L35.721874 170.41125Q36.26875 169.64563 36.3 168.8175L36.3 167.84875L37.3625 167.84875L37.3625 168.6925Q37.3625 169.28625 37.065624 169.88Q36.76875 170.47375 36.33125 170.83313ZM41.815624 169.13L40.7375 169.13L40.7375 161.91125L38.55 162.70813L38.55 161.72375L41.659374 160.55188L41.815624 160.55188L41.815624 169.13Z" fill-rule="nonzero"/><path fill="#757575" d="M27.6125 109.882706Q27.6125 111.788956 26.95625 112.726456Q26.315624 113.64833 24.925 113.64833Q23.565624 113.64833 22.909374 112.74208Q22.253124 111.83583 22.221874 110.02333L22.221874 108.58583Q22.221874 106.695206 22.8625 105.788956Q23.51875 104.86708 24.909374 104.86708Q26.284374 104.86708 26.940624 105.757706Q27.596874 106.632706 27.6125 108.476456L27.6125 109.882706ZM26.51875 108.39833Q26.51875 107.02333 26.128124 106.39833Q25.753124 105.757706 24.909374 105.757706Q24.08125 105.757706 23.690624 106.39833Q23.315624 107.02333 23.315624 108.320206L23.315624 110.05458Q23.315624 111.42958 23.70625 112.101456Q24.1125 112.757706 24.925 112.757706Q25.721874 112.757706 26.1125 112.132706Q26.503124 111.507706 26.51875 110.17958L26.51875 108.39833ZM29.33125 115.226456L28.721874 114.80458Q29.26875 114.038956 29.3 113.21083L29.3 112.24208L30.3625 112.24208L30.3625 113.08583Q30.3625 113.67958 30.065624 114.27333Q29.76875 114.86708 29.33125 115.226456ZM34.815624 113.52333L33.7375 113.52333L33.7375 106.30458L31.55 107.101456L31.55 106.11708L34.659374 104.945206L34.815624 104.945206L34.815624 113.52333ZM38.753124 109.24208L39.190624 104.99208L43.565624 104.99208L43.565624 105.99208L40.1125 105.99208L39.846874 108.320206Q40.4875 107.945206 41.284374 107.945206Q42.440624 107.945206 43.128124 108.726456Q43.815624 109.49208 43.815624 110.80458Q43.815624 112.11708 43.096874 112.882706Q42.39375 113.64833 41.1125 113.64833Q39.9875 113.64833 39.26875 113.02333Q38.55 112.382706 38.45625 111.27333L39.471874 111.27333Q39.58125 112.007706 40.003124 112.382706Q40.425 112.757706 41.1125 112.757706Q41.8625 112.757706 42.3 112.24208Q42.7375 111.726456 42.7375 110.820206Q42.7375 109.96083 42.26875 109.445206Q41.8 108.92958 41.01875 108.92958Q40.315624 108.92958 39.909374 109.226456L39.628124 109.46083L38.753124 109.24208Z" fill-rule="nonzero"/><path fill="#757575" d="M34.6125 54.276043Q34.6125 56.182293 33.95625 57.119793Q33.315624 58.041668 31.925 58.041668Q30.565624 58.041668 29.909374 57.135418Q29.253124 56.229168 29.221874 54.416668L29.221874 52.979168Q29.221874 51.088543 29.8625 50.182293Q30.51875 49.260418 31.909374 49.260418Q33.284374 49.260418 33.940624 50.151043Q34.596874 51.026043 34.6125 52.869793L34.6125 54.276043ZM33.51875 52.791668Q33.51875 51.416668 33.128124 50.791668Q32.753124 50.151043 31.909374 50.151043Q31.08125 50.151043 30.690624 50.791668Q30.315624 51.416668 30.315624 52.713543L30.315624 54.447918Q30.315624 55.822918 30.70625 56.494793Q31.1125 57.151043 31.925 57.151043Q32.721874 57.151043 33.1125 56.526043Q33.503124 55.901043 33.51875 54.572918L33.51875 52.791668ZM36.33125 59.619793L35.721874 59.197918Q36.26875 58.432293 36.3 57.604168L36.3 56.635418L37.3625 56.635418L37.3625 57.479168Q37.3625 58.072918 37.065624 58.666668Q36.76875 59.260418 36.33125 59.619793ZM43.846874 57.916668L38.253124 57.916668L38.253124 57.135418L41.20625 53.854168Q41.8625 53.104168 42.1125 52.651043Q42.3625 52.182293 42.3625 51.682293Q42.3625 51.010418 41.95625 50.588543Q41.565624 50.151043 40.878124 50.151043Q40.08125 50.151043 39.628124 50.619793Q39.175 51.072918 39.175 51.901043L38.096874 51.901043Q38.096874 50.713543 38.846874 49.994793Q39.6125 49.260418 40.878124 49.260418Q42.08125 49.260418 42.76875 49.885418Q43.45625 50.510418 43.45625 51.557293Q43.45625 52.807293 41.846874 54.557293L39.565624 57.026043L43.846874 57.026043L43.846874 57.916668Z" fill-rule="nonzero"/><path fill="#757575" d="M196.52693 349.45L196.52693 340.91876L198.9488 340.91876Q200.05818 340.91876 200.90193 341.41876Q201.7613 341.90314 202.23006 342.8094Q202.6988 343.71564 202.6988 344.90314L202.6988 345.4344Q202.6988 346.65314 202.23006 347.5594Q201.77693 348.46564 200.90193 348.95Q200.04256 349.4344 198.90193 349.45L196.52693 349.45ZM197.65193 341.84064L197.65193 348.52814L198.83943 348.52814Q200.1363 348.52814 200.85506 347.73126Q201.58943 346.91876 201.58943 345.41876L201.58943 344.91876Q201.58943 343.46564 200.90193 342.66876Q200.23006 341.85626 198.96443 341.84064L197.65193 341.84064ZM210.43318 341.84064L207.68318 341.84064L207.68318 349.45L206.5738 349.45L206.5738 341.84064L203.8238 341.84064L203.8238 340.91876L210.43318 340.91876L210.43318 341.84064Z" fill-rule="nonzero"/><path fill="#757575" d="M416.3012 343.10626L416.33246 343.90314Q417.06683 342.9969 418.2387 342.9969Q420.25433 342.9969 420.26996 345.2625L420.26996 349.45L419.1762 349.45L419.1762 345.2469Q419.1762 344.575 418.8637 344.2469Q418.56683 343.91876 417.91058 343.91876Q417.37933 343.91876 416.97308 344.2Q416.58246 344.48126 416.3637 344.9344L416.3637 349.45L415.28558 349.45L415.28558 343.10626L416.3012 343.10626ZM421.9887 346.21564Q421.9887 345.29376 422.34808 344.54376Q422.72308 343.79376 423.37933 343.40314Q424.03558 342.9969 424.8637 342.9969Q426.16058 342.9969 426.95746 343.8875Q427.76996 344.77814 427.76996 346.27814L427.76996 346.35626Q427.76996 347.27814 427.41058 348.0125Q427.0512 348.7469 426.39496 349.16876Q425.7387 349.575 424.87933 349.575Q423.59808 349.575 422.78558 348.6844Q421.9887 347.77814 421.9887 346.29376L421.9887 346.21564ZM423.08246 346.35626Q423.08246 347.40314 423.56683 348.04376Q424.06683 348.6844 424.87933 348.6844Q425.70746 348.6844 426.19183 348.04376Q426.6762 347.3875 426.6762 346.21564Q426.6762 345.1844 426.1762 344.54376Q425.69183 343.8875 424.8637 343.8875Q424.06683 343.8875 423.56683 344.52814Q423.08246 345.15314 423.08246 346.35626ZM429.44183 349.45L429.44183 340.91876L431.8637 340.91876Q432.97308 340.91876 433.81683 341.41876Q434.6762 341.90314 435.14496 342.8094Q435.6137 343.71564 435.6137 344.90314L435.6137 345.4344Q435.6137 346.65314 435.14496 347.5594Q434.69183 348.46564 433.81683 348.95Q432.95746 349.4344 431.81683 349.45L429.44183 349.45ZM430.56683 341.84064L430.56683 348.52814L431.75433 348.52814Q433.0512 348.52814 433.76996 347.73126Q434.50433 346.91876 434.50433 345.41876L434.50433 344.91876Q434.50433 343.46564 433.81683 342.66876Q433.14496 341.85626 431.87933 341.84064L430.56683 341.84064ZM443.34808 341.84064L440.59808 341.84064L440.59808 349.45L439.4887 349.45L439.4887 341.84064L436.7387 341.84064L436.7387 340.91876L443.34808 340.91876L443.34808 341.84064Z" fill-rule="nonzero"/><path fill="#4285f4" d="M167.0 21.05C167.0 20.497715 167.44771 20.05 168.0 20.05L178.0 20.05C178.55229 20.05 179.0 20.497715 179.0 21.05L179.0 31.05C179.0 31.602285 178.55229 32.05 178.0 32.05L168.0 32.05C167.44771 32.05 167.0 31.602285 167.0 31.05Z" fill-rule="nonzero"/><path fill="#757575" d="M192.70312 28.315624L189.125 28.315624L188.32812 30.55L187.17188 30.55L190.42188 22.01875L191.40625 22.01875L194.67188 30.55L193.51562 30.55L192.70312 28.315624ZM189.46875 27.39375L192.375 27.39375L190.92188 23.409374L189.46875 27.39375ZM198.35938 29.784374Q198.9375 29.784374 199.375 29.440624Q199.8125 29.08125 199.85938 28.55L200.89062 28.55Q200.85938 29.096874 200.5 29.596874Q200.15625 30.08125 199.57812 30.378124Q199.01562 30.675 198.35938 30.675Q197.0625 30.675 196.29688 29.815624Q195.54688 28.940624 195.54688 27.440624L195.54688 27.253124Q195.54688 26.33125 195.875 25.6125Q196.21875 24.89375 196.84375 24.503124Q197.48438 24.096874 198.35938 24.096874Q199.42188 24.096874 200.125 24.7375Q200.84375 25.3625 200.89062 26.39375L199.85938 26.39375Q199.8125 25.76875 199.39062 25.378124Q198.96875 24.9875 198.35938 24.9875Q197.53125 24.9875 197.07812 25.58125Q196.625 26.175 196.625 27.3L196.625 27.503124Q196.625 28.596874 197.07812 29.190624Q197.53125 29.784374 198.35938 29.784374ZM205.73438 30.55Q205.64062 30.3625 205.57812 29.878124Q204.82812 30.675 203.78125 30.675Q202.84375 30.675 202.23438 30.14375Q201.64062 29.6125 201.64062 28.784374Q201.64062 27.8 202.39062 27.253124Q203.14062 26.70625 204.51562 26.70625L205.5625 26.70625L205.5625 26.20625Q205.5625 25.64375 205.21875 25.315624Q204.89062 24.971874 204.21875 24.971874Q203.64062 24.971874 203.25 25.26875Q202.85938 25.55 202.85938 25.971874L201.76562 25.971874Q201.76562 25.4875 202.09375 25.05Q202.4375 24.6125 203.01562 24.3625Q203.59375 24.096874 204.28125 24.096874Q205.39062 24.096874 206.0 24.64375Q206.625 25.190624 206.65625 26.14375L206.65625 29.065624Q206.65625 29.940624 206.875 30.45625L206.875 30.55L205.73438 30.55ZM203.9375 29.721874Q204.45312 29.721874 204.90625 29.45625Q205.35938 29.190624 205.5625 28.76875L205.5625 27.471874L204.71875 27.471874Q202.71875 27.471874 202.71875 28.64375Q202.71875 29.14375 203.0625 29.440624Q203.40625 29.721874 203.9375 29.721874ZM208.5625 27.33125Q208.5625 25.8625 209.25 24.9875Q209.9375 24.096874 211.0625 24.096874Q212.17188 24.096874 212.82812 24.846874L212.82812 21.55L213.90625 21.55L213.90625 30.55L212.90625 30.55L212.85938 29.8625Q212.20312 30.675 211.04688 30.675Q209.95312 30.675 209.25 29.76875Q208.5625 28.8625 208.5625 27.409374L208.5625 27.33125ZM209.64062 27.45625Q209.64062 28.534374 210.07812 29.14375Q210.53125 29.753124 211.3125 29.753124Q212.34375 29.753124 212.82812 28.815624L212.82812 25.909374Q212.34375 25.01875 211.32812 25.01875Q210.53125 25.01875 210.07812 25.628124Q209.64062 26.2375 209.64062 27.45625ZM218.45312 30.675Q217.15625 30.675 216.34375 29.83125Q215.54688 28.971874 215.54688 27.55L215.54688 27.3625Q215.54688 26.409374 215.90625 25.675Q216.26562 24.925 216.90625 24.51875Q217.5625 24.096874 218.3125 24.096874Q219.54688 24.096874 220.23438 24.909374Q220.92188 25.721874 220.92188 27.2375L220.92188 27.690624L216.625 27.690624Q216.65625 28.628124 217.17188 29.20625Q217.70312 29.784374 218.51562 29.784374Q219.07812 29.784374 219.46875 29.55Q219.875 29.315624 220.1875 28.925L220.84375 29.440624Q220.04688 30.675 218.45312 30.675ZM218.3125 24.9875Q217.65625 24.9875 217.20312 25.471874Q216.76562 25.940624 216.67188 26.8L219.84375 26.8L219.84375 26.721874Q219.79688 25.89375 219.39062 25.440624Q219.0 24.9875 218.3125 24.9875ZM222.84375 24.20625L222.875 24.909374Q223.5625 24.096874 224.75 24.096874Q226.07812 24.096874 226.5625 25.1125Q226.875 24.659374 227.375 24.378124Q227.89062 24.096874 228.57812 24.096874Q230.67188 24.096874 230.70312 26.3L230.70312 30.55L229.625 30.55L229.625 26.3625Q229.625 25.690624 229.3125 25.3625Q229.0 25.01875 228.26562 25.01875Q227.65625 25.01875 227.25 25.378124Q226.85938 25.7375 226.79688 26.346874L226.79688 30.55L225.71875 30.55L225.71875 26.39375Q225.71875 25.01875 224.35938 25.01875Q223.29688 25.01875 222.90625 25.925L222.90625 30.55L221.8125 30.55L221.8125 24.20625L222.84375 24.20625ZM234.89062 28.95625L236.375 24.20625L237.53125 24.20625L234.98438 31.534374Q234.39062 33.1125 233.10938 33.1125L232.89062 33.096874L232.5 33.01875L232.5 32.14375L232.78125 32.159374Q233.34375 32.159374 233.64062 31.940624Q233.95312 31.721874 234.15625 31.128124L234.39062 30.471874L232.125 24.20625L233.3125 24.20625L234.89062 28.95625ZM245.73438 30.55Q245.64062 30.3625 245.57812 29.878124Q244.82812 30.675 243.78125 30.675Q242.84375 30.675 242.23438 30.14375Q241.64062 29.6125 241.64062 28.784374Q241.64062 27.8 242.39062 27.253124Q243.14062 26.70625 244.51562 26.70625L245.5625 26.70625L245.5625 26.20625Q245.5625 25.64375 245.21875 25.315624Q244.89062 24.971874 244.21875 24.971874Q243.64062 24.971874 243.25 25.26875Q242.85938 25.55 242.85938 25.971874L241.76562 25.971874Q241.76562 25.4875 242.09375 25.05Q242.4375 24.6125 243.01562 24.3625Q243.59375 24.096874 244.28125 24.096874Q245.39062 24.096874 246.0 24.64375Q246.625 25.190624 246.65625 26.14375L246.65625 29.065624Q246.65625 29.940624 246.875 30.45625L246.875 30.55L245.73438 30.55ZM243.9375 29.721874Q244.45312 29.721874 244.90625 29.45625Q245.35938 29.190624 245.5625 28.76875L245.5625 27.471874L244.71875 27.471874Q242.71875 27.471874 242.71875 28.64375Q242.71875 29.14375 243.0625 29.440624Q243.40625 29.721874 243.9375 29.721874ZM248.5625 27.33125Q248.5625 25.846874 249.25 24.971874Q249.9375 24.096874 251.0625 24.096874Q252.21875 24.096874 252.875 24.909374L252.92188 24.20625L253.92188 24.20625L253.92188 30.39375Q253.92188 31.628124 253.1875 32.33125Q252.45312 33.05 251.23438 33.05Q250.54688 33.05 249.89062 32.753124Q249.23438 32.45625 248.89062 31.95625L249.45312 31.3Q250.14062 32.159374 251.15625 32.159374Q251.9375 32.159374 252.375 31.70625Q252.82812 31.26875 252.82812 30.45625L252.82812 29.909374Q252.17188 30.675 251.04688 30.675Q249.9375 30.675 249.25 29.784374Q248.5625 28.878124 248.5625 27.33125ZM249.65625 27.45625Q249.65625 28.51875 250.09375 29.14375Q250.53125 29.753124 251.32812 29.753124Q252.34375 29.753124 252.82812 28.815624L252.82812 25.925Q252.32812 25.01875 251.32812 25.01875Q250.54688 25.01875 250.09375 25.628124Q249.65625 26.2375 249.65625 27.45625ZM258.89062 25.175Q258.64062 25.14375 258.35938 25.14375Q257.28125 25.14375 256.90625 26.05L256.90625 30.55L255.82812 30.55L255.82812 24.20625L256.875 24.20625L256.89062 24.940624Q257.42188 24.096874 258.40625 24.096874Q258.71875 24.096874 258.89062 24.175L258.89062 25.175ZM262.45312 30.675Q261.15625 30.675 260.34375 29.83125Q259.54688 28.971874 259.54688 27.55L259.54688 27.3625Q259.54688 26.409374 259.90625 25.675Q260.26562 24.925 260.90625 24.51875Q261.5625 24.096874 262.3125 24.096874Q263.54688 24.096874 264.23438 24.909374Q264.92188 25.721874 264.92188 27.2375L264.92188 27.690624L260.625 27.690624Q260.65625 28.628124 261.17188 29.20625Q261.70312 29.784374 262.51562 29.784374Q263.07812 29.784374 263.46875 29.55Q263.875 29.315624 264.1875 28.925L264.84375 29.440624Q264.04688 30.675 262.45312 30.675ZM262.3125 24.9875Q261.65625 24.9875 261.20312 25.471874Q260.76562 25.940624 260.67188 26.8L263.84375 26.8L263.84375 26.721874Q263.79688 25.89375 263.39062 25.440624Q263.0 24.9875 262.3125 24.9875ZM268.45312 30.675Q267.15625 30.675 266.34375 29.83125Q265.54688 28.971874 265.54688 27.55L265.54688 27.3625Q265.54688 26.409374 265.90625 25.675Q266.26562 24.925 266.90625 24.51875Q267.5625 24.096874 268.3125 24.096874Q269.54688 24.096874 270.23438 24.909374Q270.92188 25.721874 270.92188 27.2375L270.92188 27.690624L266.625 27.690624Q266.65625 28.628124 267.17188 29.20625Q267.70312 29.784374 268.51562 29.784374Q269.07812 29.784374 269.46875 29.55Q269.875 29.315624 270.1875 28.925L270.84375 29.440624Q270.04688 30.675 268.45312 30.675ZM268.3125 24.9875Q267.65625 24.9875 267.20312 25.471874Q266.76562 25.940624 266.67188 26.8L269.84375 26.8L269.84375 26.721874Q269.79688 25.89375 269.39062 25.440624Q269.0 24.9875 268.3125 24.9875ZM272.84375 24.20625L272.875 24.909374Q273.5625 24.096874 274.75 24.096874Q276.07812 24.096874 276.5625 25.1125Q276.875 24.659374 277.375 24.378124Q277.89062 24.096874 278.57812 24.096874Q280.67188 24.096874 280.70312 26.3L280.70312 30.55L279.625 30.55L279.625 26.3625Q279.625 25.690624 279.3125 25.3625Q279.0 25.01875 278.26562 25.01875Q277.65625 25.01875 277.25 25.378124Q276.85938 25.7375 276.79688 26.346874L276.79688 30.55L275.71875 30.55L275.71875 26.39375Q275.71875 25.01875 274.35938 25.01875Q273.29688 25.01875 272.90625 25.925L272.90625 30.55L271.8125 30.55L271.8125 24.20625L272.84375 24.20625ZM285.45312 30.675Q284.15625 30.675 283.34375 29.83125Q282.54688 28.971874 282.54688 27.55L282.54688 27.3625Q282.54688 26.409374 282.90625 25.675Q283.26562 24.925 283.90625 24.51875Q284.5625 24.096874 285.3125 24.096874Q286.54688 24.096874 287.23438 24.909374Q287.92188 25.721874 287.92188 27.2375L287.92188 27.690624L283.625 27.690624Q283.65625 28.628124 284.17188 29.20625Q284.70312 29.784374 285.51562 29.784374Q286.07812 29.784374 286.46875 29.55Q286.875 29.315624 287.1875 28.925L287.84375 29.440624Q287.04688 30.675 285.45312 30.675ZM285.3125 24.9875Q284.65625 24.9875 284.20312 25.471874Q283.76562 25.940624 283.67188 26.8L286.84375 26.8L286.84375 26.721874Q286.79688 25.89375 286.39062 25.440624Q286.0 24.9875 285.3125 24.9875ZM289.84375 24.20625L289.875 25.003124Q290.60938 24.096874 291.78125 24.096874Q293.79688 24.096874 293.8125 26.3625L293.8125 30.55L292.71875 30.55L292.71875 26.346874Q292.71875 25.675 292.40625 25.346874Q292.10938 25.01875 291.45312 25.01875Q290.92188 25.01875 290.51562 25.3Q290.125 25.58125 289.90625 26.034374L289.90625 30.55L288.82812 30.55L288.82812 24.20625L289.84375 24.20625ZM297.29688 22.675L297.29688 24.20625L298.46875 24.20625L298.46875 25.05L297.29688 25.05L297.29688 28.971874Q297.29688 29.3625 297.45312 29.55Q297.60938 29.7375 297.98438 29.7375Q298.17188 29.7375 298.5 29.675L298.5 30.55Q298.07812 30.675 297.67188 30.675Q296.95312 30.675 296.57812 30.2375Q296.20312 29.784374 296.20312 28.971874L296.20312 25.05L295.04688 25.05L295.04688 24.20625L296.20312 24.20625L296.20312 22.675L297.29688 22.675Z" fill-rule="nonzero"/><path fill="#db4437" d="M315.0 21.05C315.0 20.497715 315.44772 20.05 316.0 20.05L326.0 20.05C326.55228 20.05 327.0 20.497715 327.0 21.05L327.0 31.05C327.0 31.602285 326.55228 32.05 326.0 32.05L316.0 32.05C315.44772 32.05 315.0 31.602285 315.0 31.05Z" fill-rule="nonzero"/><path fill="#757575" d="M342.54688 26.565624Q342.54688 27.815624 342.125 28.753124Q341.70312 29.675 340.92188 30.175Q340.15625 30.675 339.125 30.675Q338.125 30.675 337.34375 30.175Q336.5625 29.675 336.125 28.76875Q335.70312 27.846874 335.6875 26.628124L335.6875 26.01875Q335.6875 24.784374 336.10938 23.846874Q336.54688 22.909374 337.32812 22.409374Q338.10938 21.89375 339.125 21.89375Q340.14062 21.89375 340.92188 22.39375Q341.70312 22.89375 342.125 23.83125Q342.54688 24.76875 342.54688 26.01875L342.54688 26.565624ZM341.4375 26.003124Q341.4375 24.4875 340.82812 23.675Q340.21875 22.8625 339.125 22.8625Q338.04688 22.8625 337.4375 23.675Q336.82812 24.4875 336.8125 25.925L336.8125 26.565624Q336.8125 28.034374 337.42188 28.878124Q338.04688 29.70625 339.125 29.70625Q340.21875 29.70625 340.8125 28.925Q341.42188 28.128124 341.4375 26.64375L341.4375 26.003124ZM345.90625 29.08125L347.48438 24.20625L348.59375 24.20625L346.3125 30.55L345.48438 30.55L343.1875 24.20625L344.29688 24.20625L345.90625 29.08125ZM352.45312 30.675Q351.15625 30.675 350.34375 29.83125Q349.54688 28.971874 349.54688 27.55L349.54688 27.3625Q349.54688 26.409374 349.90625 25.675Q350.26562 24.925 350.90625 24.51875Q351.5625 24.096874 352.3125 24.096874Q353.54688 24.096874 354.23438 24.909374Q354.92188 25.721874 354.92188 27.2375L354.92188 27.690624L350.625 27.690624Q350.65625 28.628124 351.17188 29.20625Q351.70312 29.784374 352.51562 29.784374Q353.07812 29.784374 353.46875 29.55Q353.875 29.315624 354.1875 28.925L354.84375 29.440624Q354.04688 30.675 352.45312 30.675ZM352.3125 24.9875Q351.65625 24.9875 351.20312 25.471874Q350.76562 25.940624 350.67188 26.8L353.84375 26.8L353.84375 26.721874Q353.79688 25.89375 353.39062 25.440624Q353.0 24.9875 352.3125 24.9875ZM358.89062 25.175Q358.64062 25.14375 358.35938 25.14375Q357.28125 25.14375 356.90625 26.05L356.90625 30.55L355.82812 30.55L355.82812 24.20625L356.875 24.20625L356.89062 24.940624Q357.42188 24.096874 358.40625 24.096874Q358.71875 24.096874 358.89062 24.175L358.89062 25.175ZM363.73438 30.55Q363.64062 30.3625 363.57812 29.878124Q362.82812 30.675 361.78125 30.675Q360.84375 30.675 360.23438 30.14375Q359.64062 29.6125 359.64062 28.784374Q359.64062 27.8 360.39062 27.253124Q361.14062 26.70625 362.51562 26.70625L363.5625 26.70625L363.5625 26.20625Q363.5625 25.64375 363.21875 25.315624Q362.89062 24.971874 362.21875 24.971874Q361.64062 24.971874 361.25 25.26875Q360.85938 25.55 360.85938 25.971874L359.76562 25.971874Q359.76562 25.4875 360.09375 25.05Q360.4375 24.6125 361.01562 24.3625Q361.59375 24.096874 362.28125 24.096874Q363.39062 24.096874 364.0 24.64375Q364.625 25.190624 364.65625 26.14375L364.65625 29.065624Q364.65625 29.940624 364.875 30.45625L364.875 30.55L363.73438 30.55ZM361.9375 29.721874Q362.45312 29.721874 362.90625 29.45625Q363.35938 29.190624 363.5625 28.76875L363.5625 27.471874L362.71875 27.471874Q360.71875 27.471874 360.71875 28.64375Q360.71875 29.14375 361.0625 29.440624Q361.40625 29.721874 361.9375 29.721874ZM368.0 30.55L366.92188 30.55L366.92188 21.55L368.0 21.55L368.0 30.55ZM371.0 30.55L369.92188 30.55L369.92188 21.55L371.0 21.55L371.0 30.55ZM379.73438 30.55Q379.64062 30.3625 379.57812 29.878124Q378.82812 30.675 377.78125 30.675Q376.84375 30.675 376.23438 30.14375Q375.64062 29.6125 375.64062 28.784374Q375.64062 27.8 376.39062 27.253124Q377.14062 26.70625 378.51562 26.70625L379.5625 26.70625L379.5625 26.20625Q379.5625 25.64375 379.21875 25.315624Q378.89062 24.971874 378.21875 24.971874Q377.64062 24.971874 377.25 25.26875Q376.85938 25.55 376.85938 25.971874L375.76562 25.971874Q375.76562 25.4875 376.09375 25.05Q376.4375 24.6125 377.01562 24.3625Q377.59375 24.096874 378.28125 24.096874Q379.39062 24.096874 380.0 24.64375Q380.625 25.190624 380.65625 26.14375L380.65625 29.065624Q380.65625 29.940624 380.875 30.45625L380.875 30.55L379.73438 30.55ZM377.9375 29.721874Q378.45312 29.721874 378.90625 29.45625Q379.35938 29.190624 379.5625 28.76875L379.5625 27.471874L378.71875 27.471874Q376.71875 27.471874 376.71875 28.64375Q376.71875 29.14375 377.0625 29.440624Q377.40625 29.721874 377.9375 29.721874ZM382.5625 27.33125Q382.5625 25.846874 383.25 24.971874Q383.9375 24.096874 385.0625 24.096874Q386.21875 24.096874 386.875 24.909374L386.92188 24.20625L387.92188 24.20625L387.92188 30.39375Q387.92188 31.628124 387.1875 32.33125Q386.45312 33.05 385.23438 33.05Q384.54688 33.05 383.89062 32.753124Q383.23438 32.45625 382.89062 31.95625L383.45312 31.3Q384.14062 32.159374 385.15625 32.159374Q385.9375 32.159374 386.375 31.70625Q386.82812 31.26875 386.82812 30.45625L386.82812 29.909374Q386.17188 30.675 385.04688 30.675Q383.9375 30.675 383.25 29.784374Q382.5625 28.878124 382.5625 27.33125ZM383.65625 27.45625Q383.65625 28.51875 384.09375 29.14375Q384.53125 29.753124 385.32812 29.753124Q386.34375 29.753124 386.82812 28.815624L386.82812 25.925Q386.32812 25.01875 385.32812 25.01875Q384.54688 25.01875 384.09375 25.628124Q383.65625 26.2375 383.65625 27.45625ZM392.89062 25.175Q392.64062 25.14375 392.35938 25.14375Q391.28125 25.14375 390.90625 26.05L390.90625 30.55L389.82812 30.55L389.82812 24.20625L390.875 24.20625L390.89062 24.940624Q391.42188 24.096874 392.40625 24.096874Q392.71875 24.096874 392.89062 24.175L392.89062 25.175ZM396.45312 30.675Q395.15625 30.675 394.34375 29.83125Q393.54688 28.971874 393.54688 27.55L393.54688 27.3625Q393.54688 26.409374 393.90625 25.675Q394.26562 24.925 394.90625 24.51875Q395.5625 24.096874 396.3125 24.096874Q397.54688 24.096874 398.23438 24.909374Q398.92188 25.721874 398.92188 27.2375L398.92188 27.690624L394.625 27.690624Q394.65625 28.628124 395.17188 29.20625Q395.70312 29.784374 396.51562 29.784374Q397.07812 29.784374 397.46875 29.55Q397.875 29.315624 398.1875 28.925L398.84375 29.440624Q398.04688 30.675 396.45312 30.675ZM396.3125 24.9875Q395.65625 24.9875 395.20312 25.471874Q394.76562 25.940624 394.67188 26.8L397.84375 26.8L397.84375 26.721874Q397.79688 25.89375 397.39062 25.440624Q397.0 24.9875 396.3125 24.9875ZM402.45312 30.675Q401.15625 30.675 400.34375 29.83125Q399.54688 28.971874 399.54688 27.55L399.54688 27.3625Q399.54688 26.409374 399.90625 25.675Q400.26562 24.925 400.90625 24.51875Q401.5625 24.096874 402.3125 24.096874Q403.54688 24.096874 404.23438 24.909374Q404.92188 25.721874 404.92188 27.2375L404.92188 27.690624L400.625 27.690624Q400.65625 28.628124 401.17188 29.20625Q401.70312 29.784374 402.51562 29.784374Q403.07812 29.784374 403.46875 29.55Q403.875 29.315624 404.1875 28.925L404.84375 29.440624Q404.04688 30.675 402.45312 30.675ZM402.3125 24.9875Q401.65625 24.9875 401.20312 25.471874Q400.76562 25.940624 400.67188 26.8L403.84375 26.8L403.84375 26.721874Q403.79688 25.89375 403.39062 25.440624Q403.0 24.9875 402.3125 24.9875ZM406.84375 24.20625L406.875 24.909374Q407.5625 24.096874 408.75 24.096874Q410.07812 24.096874 410.5625 25.1125Q410.875 24.659374 411.375 24.378124Q411.89062 24.096874 412.57812 24.096874Q414.67188 24.096874 414.70312 26.3L414.70312 30.55L413.625 30.55L413.625 26.3625Q413.625 25.690624 413.3125 25.3625Q413.0 25.01875 412.26562 25.01875Q411.65625 25.01875 411.25 25.378124Q410.85938 25.7375 410.79688 26.346874L410.79688 30.55L409.71875 30.55L409.71875 26.39375Q409.71875 25.01875 408.35938 25.01875Q407.29688 25.01875 406.90625 25.925L406.90625 30.55L405.8125 30.55L405.8125 24.20625L406.84375 24.20625ZM419.45312 30.675Q418.15625 30.675 417.34375 29.83125Q416.54688 28.971874 416.54688 27.55L416.54688 27.3625Q416.54688 26.409374 416.90625 25.675Q417.26562 24.925 417.90625 24.51875Q418.5625 24.096874 419.3125 24.096874Q420.54688 24.096874 421.23438 24.909374Q421.92188 25.721874 421.92188 27.2375L421.92188 27.690624L417.625 27.690624Q417.65625 28.628124 418.17188 29.20625Q418.70312 29.784374 419.51562 29.784374Q420.07812 29.784374 420.46875 29.55Q420.875 29.315624 421.1875 28.925L421.84375 29.440624Q421.04688 30.675 419.45312 30.675ZM419.3125 24.9875Q418.65625 24.9875 418.20312 25.471874Q417.76562 25.940624 417.67188 26.8L420.84375 26.8L420.84375 26.721874Q420.79688 25.89375 420.39062 25.440624Q420.0 24.9875 419.3125 24.9875ZM423.84375 24.20625L423.875 25.003124Q424.60938 24.096874 425.78125 24.096874Q427.79688 24.096874 427.8125 26.3625L427.8125 30.55L426.71875 30.55L426.71875 26.346874Q426.71875 25.675 426.40625 25.346874Q426.10938 25.01875 425.45312 25.01875Q424.92188 25.01875 424.51562 25.3Q424.125 25.58125 423.90625 26.034374L423.90625 30.55L422.82812 30.55L422.82812 24.20625L423.84375 24.20625ZM431.29688 22.675L431.29688 24.20625L432.46875 24.20625L432.46875 25.05L431.29688 25.05L431.29688 28.971874Q431.29688 29.3625 431.45312 29.55Q431.60938 29.7375 431.98438 29.7375Q432.17188 29.7375 432.5 29.675L432.5 30.55Q432.07812 30.675 431.67188 30.675Q430.95312 30.675 430.57812 30.2375Q430.20312 29.784374 430.20312 28.971874L430.20312 25.05L429.04688 25.05L429.04688 24.20625L430.20312 24.20625L430.20312 22.675L431.29688 22.675Z" fill-rule="nonzero"/></svg>